<svg xmlns="http://www.w3.org/2000/svg" viewBox="0 0 32 32" fill="none">
  <rect x="6" y="14" width="20" height="14" rx="2" fill="#F472B6" stroke="#DB2777" stroke-width="1.25"/>
  <rect x="6" y="14" width="20" height="5" fill="#FB7185" opacity="0.85"/>
  <path d="M16 14V28" stroke="#FDF2F8" stroke-width="1.25" stroke-linecap="round"/>
  <path d="M6 17h20" stroke="#FDF2F8" stroke-width="0.85" opacity="0.7"/>
  <path d="M16 14c-3-3.5-6.5-4-8.5-2.2S8 14 16 14c8-1.2 9.5-3.4 8.5-2.2S19 10.5 16 14Z" fill="#EC4899" stroke="#BE185D" stroke-width="0.85" stroke-linejoin="round"/>
  <path d="M13.5 8.5c.5-1.2 1.5-1.8 2.5-1.6.6.1 1 .5 1.3 1 .3-.5.7-.9 1.3-1 1-.2 2 .4 2.5 1.6.8 1.5-.2 3.2-2.5 3.8-2.3-.6-3.3-2.3-2.5-3.8Z" fill="#FBCFE8" stroke="#DB2777" stroke-width="0.65"/>
</svg>
